<svg xmlns="http://www.w3.org/2000/svg" width="200" height="200" viewBox="0 0 200 200">
  <g id="Curriculum-Pedagogy_" data-name="Curriculum-Pedagogy " transform="translate(9650 -6544)">
    <rect id="Rectangle_562" data-name="Rectangle 562" width="200" height="200" transform="translate(-9650 6544)" fill="#fff" opacity="0"/>
    <g id="Group_761" data-name="Group 761" transform="translate(-1.772 0.652)">
      <circle id="Ellipse_126" data-name="Ellipse 126" cx="22.5" cy="22.5" r="22.5" transform="translate(-9504.279 6575.349)" fill="#ffd530"/>
      <path id="Path_1138" data-name="Path 1138" d="M167.03,123.2a97.925,97.925,0,0,0-25.134-8.062,124.76,124.76,0,0,0-52.915,1.523c-2.688.65-5.138-.061-7.642-.608a122.253,122.253,0,0,0-62.391,2.209A131.991,131.991,0,0,0,5.6,123.438c-3.323,1.414-5.6.1-5.6-3.543Q-.006,67.269,0,14.641c0-3.123,1.166-4.292,4.27-4.3,3.368-.013,6.736,0,10.363,0,0-1.238-.031-2.342.006-3.443.085-2.429.927-3.386,3.3-3.986A91.492,91.492,0,0,1,51.617.651c13,1.575,24.755,6.079,34.225,15.526.158.157.34.289.594.5.386-.326.783-.626,1.14-.968C96,7.67,106.169,3.236,117.515,1.267a90.99,90.99,0,0,1,37.669,1.675c2.159.531,2.993,1.555,3.056,3.813.031,1.117.005,2.236.005,3.6h6.481c1.239,0,2.486.085,3.715-.02a4.36,4.36,0,0,1,4.589,2.4V121.9c-1.166,1.531-2.017,2.215-3.135,2.215A6.945,6.945,0,0,1,167.03,123.2Zm-.763-7.74V17.165h-7.834v2.227q0,40.026,0,80.051a15.533,15.533,0,0,1-.033,1.855,3.3,3.3,0,0,1-3.516,3.133,14.456,14.456,0,0,1-2.018-.157c-10.915-1.516-21.864-2.046-32.81-.562-4.675.634-9.274,1.831-13.907,2.773q.041.27.082.54a126.846,126.846,0,0,1,13.418-.718A124.3,124.3,0,0,1,166.267,115.459ZM6.78,115.452a125.046,125.046,0,0,1,59.944-8.529,6.137,6.137,0,0,0-1.342-.552,81.288,81.288,0,0,0-26.666-3.427c-6.571.266-13.127.942-19.683,1.507-2.587.221-4.117-.939-4.278-3.508-.039-.617-.016-1.238-.016-1.858q0-39.872,0-79.744V17.206H6.78Zm76.278-8.782a5.134,5.134,0,0,0,.072-.519q-.027-40.889-.094-81.779a3.114,3.114,0,0,0-.83-1.881A43.891,43.891,0,0,0,64.318,10.748C50.245,5.731,35.933,6.107,21.4,9.067V97.287a185.855,185.855,0,0,1,18.656-1.058C54.937,96.229,69.411,98.7,83.057,106.67ZM118.5,8.108c-10.6,1.955-20.06,6.21-27.574,14.171a3.971,3.971,0,0,0-1.009,2.473q-.078,40.2-.039,80.4c0,.467.068.933.111,1.472,19.35-11.18,40.19-11.591,61.527-9.328V9.175c-.24-.073-.446-.153-.66-.2a91.821,91.821,0,0,0-18.9-2.077A74.006,74.006,0,0,0,118.5,8.108ZM104.288,68.84l.064-1.89a2.121,2.121,0,0,1,.566-1.283,29.958,29.958,0,0,1,12.208-8.014c9.6-3.424,19.371-3.167,29.29-1.148v6.287c-14.611-1.478-28.911-1.284-42.079,6.4A3.43,3.43,0,0,1,104.288,68.84ZM32.481,62.79V56.5c9.919-2.02,19.686-2.276,29.29,1.147a29.958,29.958,0,0,1,12.208,8.014,2.121,2.121,0,0,1,.566,1.283l.064,1.89a3.429,3.429,0,0,1-.049.354C61.392,61.507,47.093,61.313,32.481,62.79Zm71.807-14.467.064-1.89a2.121,2.121,0,0,1,.566-1.283,29.958,29.958,0,0,1,12.208-8.015c9.6-3.424,19.371-3.167,29.29-1.147v6.286c-14.611-1.478-28.911-1.284-42.079,6.4A3.43,3.43,0,0,1,104.288,48.324ZM32.481,42.275V35.988c9.919-2.02,19.686-2.276,29.29,1.147A29.958,29.958,0,0,1,73.978,45.15a2.121,2.121,0,0,1,.566,1.283l.064,1.89a3.43,3.43,0,0,1-.049.354C61.392,40.991,47.093,40.8,32.481,42.275Z" transform="translate(-9636.228 6587.098)" fill="#623f99" stroke="rgba(0,0,0,0)" stroke-width="1"/>
    </g>
  </g>
</svg>
