<svg xmlns="http://www.w3.org/2000/svg" width="200" height="200" viewBox="0 0 200 200">
  <g id="Learning-Space" transform="translate(9650 -6777)">
    <rect id="Rectangle_563" data-name="Rectangle 563" width="200" height="200" transform="translate(-9650 6777)" fill="#fff" opacity="0"/>
    <g id="Group_762" data-name="Group 762" transform="translate(-11.072 -6.192)">
      <circle id="Ellipse_168" data-name="Ellipse 168" cx="22.5" cy="22.5" r="22.5" transform="translate(-9504.279 6815.349)" fill="#ffd530"/>
      <path id="Path_192" data-name="Path 192" d="M0,130.552v-6.1l7.648-14.017c-4.427-3.339-5.539-8.058-5.456-13.422.146-9.369.011-18.743.068-28.114a22.073,22.073,0,0,1,.605-5.1,15.485,15.485,0,0,1,6.764-9.257c-.416-.262-.748-.47-1.078-.679A17.886,17.886,0,0,1,.816,43.77C.492,42.725.269,41.648,0,40.586V36.34a4.53,4.53,0,0,0,.252-.732A18.139,18.139,0,1,1,34.382,46.637a18.637,18.637,0,0,1-7.662,7.875A16.457,16.457,0,0,1,33.9,65.619c3.349-3.472,7.571-1.7,11.461-2.341V61.817c0-4.556.023-9.111-.005-13.666a15.471,15.471,0,0,1,5.734-12.709,45.057,45.057,0,0,1,5.317-3.283,18.318,18.318,0,0,1-.783-27.3,18.344,18.344,0,0,1,25.145.257A18.35,18.35,0,0,1,79.524,32.3c.256.119.487.24.728.338,6.43,2.626,10.1,7.345,10.429,14.31.231,4.943.072,9.9.087,14.858,0,.511,0,1.021,0,1.607,2.156,0,4.106.068,6.049-.018a7.943,7.943,0,0,1,5.446,2.116,16.2,16.2,0,0,1,7.126-10.976c-.353-.236-.606-.408-.861-.576-6.285-4.138-9.281-9.922-8.561-17.446A18.09,18.09,0,0,1,133.9,29.884a46.1,46.1,0,0,1,2.234,6.456v4.512c-.239.882-.461,1.77-.719,2.647a18.2,18.2,0,0,1-8.83,10.983,2,2,0,0,0,.285.326c4.928,3.463,7.065,8.277,7.042,14.208-.038,9.858,0,19.716-.025,29.574a20.67,20.67,0,0,1-.334,3.817,13.265,13.265,0,0,1-5.05,8.038l7.631,14v6.1a8.176,8.176,0,0,1-5.318,5.308H5.318A8.134,8.134,0,0,1,0,130.552M113.185,93.374c-2.1.624-3.925,1.571-5.779,1.638-5.707.206-11.427.124-17.14.051a7.1,7.1,0,0,1-5.514-2.794,7.4,7.4,0,0,1-1.161-8.189,7.731,7.731,0,0,1,7.337-4.808c3.765-.062,7.532-.008,11.3-.023a1.513,1.513,0,0,0,1.426-2.392c-1.423-2.494-2.881-4.968-4.306-7.461a2.754,2.754,0,0,0-2.613-1.474q-28.645.016-57.29,0a2.9,2.9,0,0,0-2.774,1.658c-1.267,2.278-2.6,4.517-3.906,6.775-1.109,1.921-.561,2.892,1.622,2.9,3.9.018,7.8-.084,11.693.1a7.873,7.873,0,0,1,7.129,7.48c.166,4.711-3.288,8.23-8.226,8.287-4.386.05-8.773-.03-13.159.026-3.048.038-6.025-.088-8.616-2.233L6.324,122.15H129.816L113.185,93.374M10.07,106.494c3.335-5.767,6.592-11.377,9.8-17.012a1.478,1.478,0,0,0-.15-1.176c-.925-1.708-1.912-3.383-2.876-5.07-1.424-2.492-2.932-4.943-4.217-7.5a3.1,3.1,0,0,1,.089-2.546,2.43,2.43,0,0,1,2.107-.882,3.471,3.471,0,0,1,1.912,1.6C19.415,78.427,22,83,24.61,87.566A5.431,5.431,0,0,0,29.7,90.537c5.05-.032,10.1,0,15.149-.018a5.088,5.088,0,0,0,1.563-.2A3.32,3.32,0,0,0,48.649,86.8,3.524,3.524,0,0,0,45.1,83.834c-3.986-.026-7.973,0-11.96-.013a4.543,4.543,0,0,1-4.2-2.323c-2.233-3.861-4.458-7.728-6.626-11.625a2.339,2.339,0,0,1-.292-1.839,3.71,3.71,0,0,1,1.82-1.64,2.014,2.014,0,0,1,2.4,1.2c1,1.735,1.989,3.476,2.982,5.215l.38-.1a60.344,60.344,0,0,0-.394-6.932,11.2,11.2,0,0,0-12.321-9.068c-5.28.486-9.953,5.258-9.987,10.645-.068,10.876-.04,21.753-.012,32.629a8.5,8.5,0,0,0,3.175,6.5m116.032-.038a8.412,8.412,0,0,0,3.132-6.428c.033-10.875.079-21.751-.012-32.626A11.16,11.16,0,0,0,115.58,56.93c-8.023,2-9.792,8.839-8.716,15.927.989-1.715,1.929-3.362,2.886-5,.875-1.5,2.055-1.951,3.28-1.289,1.264.683,1.554,2.038.7,3.533-2.1,3.686-4.232,7.349-6.315,11.042a4.925,4.925,0,0,1-4.668,2.686c-3.765-.024-7.529-.011-11.294,0-2.342,0-3.963,1.371-3.99,3.346-.028,2,1.521,3.347,3.921,3.353,4.916.011,9.833-.045,14.749.023a5.741,5.741,0,0,0,5.511-3.19c2.4-4.273,4.856-8.516,7.292-12.769a13.027,13.027,0,0,1,.9-1.468,2.192,2.192,0,0,1,2.951-.615,2.257,2.257,0,0,1,.93,2.874,9.227,9.227,0,0,1-.559,1.051c-2.19,3.835-4.362,7.681-6.592,11.493a1.826,1.826,0,0,0-.047,2.136c3,5.1,5.949,10.233,8.917,15.353.195.336.417.656.665,1.045M86.125,63.348c.018-.359.046-.657.046-.955,0-5,.032-9.994-.011-14.991A11.151,11.151,0,0,0,75.095,36.312q-6.976-.1-13.955,0A11.158,11.158,0,0,0,49.967,47.563c-.03,4.421-.007,8.844-.007,13.266,0,.826,0,1.652,0,2.47h4.5c0-.6,0-1.081,0-1.563,0-4.6-.008-9.2.006-13.8,0-1.5.62-2.359,1.765-2.579,1.6-.308,2.769.723,2.775,2.51.018,4.687.006,9.375.006,14.062v1.385H77.119c0-.58,0-1.063,0-1.546,0-4.643-.013-9.286.007-13.929.008-1.814,1.333-2.918,2.928-2.446a2.306,2.306,0,0,1,1.624,2.571c-.017,4.643-.006,9.286-.006,13.929v1.452ZM31.7,38.573A13.575,13.575,0,1,0,18.046,52.028,13.541,13.541,0,0,0,31.7,38.573m72.725-.089a13.461,13.461,0,0,0,13.567,13.545,13.553,13.553,0,1,0-13.567-13.545M68.044,31.641a13.547,13.547,0,1,0-13.553-13.58,13.506,13.506,0,0,0,13.553,13.58m63.545,95.292H4.609c-.261,3.785.314,4.4,3.975,4.4h119.1c.4,0,.8.009,1.2,0a2.423,2.423,0,0,0,2.71-2.708c.016-.528,0-1.056,0-1.694" transform="translate(-9618.928 6815.193)" fill="#623f99" stroke="#644099" stroke-width="1"/>
    </g>
  </g>
</svg>
