<svg xmlns="http://www.w3.org/2000/svg" width="200" height="200" viewBox="0 0 200 200">
  <g id="Teacher-Training" transform="translate(9274 -6544)">
    <rect id="Rectangle_565" data-name="Rectangle 565" width="200" height="200" transform="translate(-9274 6544)" fill="#fff" opacity="0"/>
    <g id="Group_764" data-name="Group 764" transform="translate(-7)">
      <circle id="Ellipse_165" data-name="Ellipse 165" cx="22.5" cy="22.5" r="22.5" transform="translate(-9127 6575.349)" fill="#ffd530"/>
      <path id="Path_1137" data-name="Path 1137" d="M14.24,134.4c-3.174,0-4.47-1.318-4.473-4.536q0-1,0-2.009t0-2.013v-.005c-.007-5.854-.014-12.488.028-18.951a2.968,2.968,0,0,0-2.05-3.194,10.143,10.143,0,0,1-5.226-4.373A29.076,29.076,0,0,1,.7,95.082l0-.011c-.208-.564-.442-1.2-.693-1.833V74.967c.019-.078.039-.158.059-.24l0-.012a6.933,6.933,0,0,0,.185-.924A25.9,25.9,0,0,1,6.961,58.658a56.317,56.317,0,0,1,4.787-4.415l.011-.009.053-.046c.736-.627,1.5-1.276,2.229-1.932l.806-.722-.782-.747A20.63,20.63,0,0,1,7.339,35.675,21.073,21.073,0,0,1,13.482,20.7,20.644,20.644,0,0,1,48.636,34.05a21.141,21.141,0,0,1-5.568,15.7l-.882.979,16.546,8.211V55.431q0-6.2,0-12.4v-.756c0-9.263-.009-18.841.014-28.253C58.759,5.834,64.3.091,72.206.059,81.78.019,92.021,0,103.511,0c12.468,0,25.095.023,36.883.049a13.191,13.191,0,0,1,10.615,5.1,17.159,17.159,0,0,1,2.89,6.5v57.26c-.135.415-.261.842-.379,1.246a16.654,16.654,0,0,1-.977,2.745c-2.507,5.025-6.75,7.6-12.611,7.643-2.374.02-4.939.029-8.073.029-1.761,0-3.551,0-5.283-.006l-.91,0h-.025c-1.8,0-4.045-.007-6.171-.007h-3.209l.406,1.3c.061.2.121.392.191.629l.007.023c.112.372.208.691.327,1.016,3.462,9.427,6.995,19.037,9.686,26.356l2.579,7.018c.375,1.022.761,2.064,1.135,3.071l.214.579.012.031c1.076,2.9,2.187,5.9,3.231,8.863a3.539,3.539,0,0,1-1.854,4.607,3.747,3.747,0,0,1-1.5.334,3.627,3.627,0,0,1-3.179-2.224,10.763,10.763,0,0,1-.527-1.274l0-.008-.052-.144-1.813-4.928-1.427-3.883-.121-.327c-4.691-12.757-9.541-25.947-14.253-38.94a3.005,3.005,0,0,0-3.214-2.139c-.1,0-.174-.006-.24-.006a2.749,2.749,0,0,0-2.757,2.174c-5.96,16.5-11.873,32.754-17.419,47.989a12.9,12.9,0,0,1-.94,2.043,3.05,3.05,0,0,1-2.779,1.654c-.117,0-.234-.005-.347-.014a3.059,3.059,0,0,1-3.02-2.273,6.992,6.992,0,0,1,.31-3.559c4.036-11.245,8.194-22.664,12.216-33.707l0-.011.217-.595.041-.113c1.225-3.361,2.491-6.837,3.743-10.279.141-.388.266-.779.4-1.192l.026-.08.011-.034c.065-.2.132-.416.207-.643l.428-1.311H94.826l-3.394,0h-3.3c-2.638,0-5.757.005-8.9.047a3.066,3.066,0,0,0-2.164,1.354,11.113,11.113,0,0,1-13.932,4.184c-3.18-1.372-6.339-2.974-9.4-4.524l-.023-.012c-1.34-.68-2.857-1.45-4.329-2.173-.33-.163-.658-.3-1.038-.459l-.035-.014-.059-.024c-.182-.076-.371-.156-.58-.246l-1.4-.6v3.708q0,6.244,0,12.488c0,11.646,0,23.689-.006,35.616a4.745,4.745,0,0,1-1.049,3.464,4.691,4.691,0,0,1-3.44,1.049c-4.454,0-9.169.006-14.015.006C22.788,134.411,18.361,134.408,14.24,134.4ZM27.306,56.115a21.3,21.3,0,0,0-14.191,6.271A20.77,20.77,0,0,0,7.158,76.67c-.084,4.672-.049,9.4-.016,13.978l.005.814a6.13,6.13,0,0,0,5.779,6.36c2.929.34,3.969,1.488,3.973,4.385,0,4.175,0,8.42,0,12.526q0,4.926,0,9.851c0,.388.022.773.043,1.146v.006c.01.173.02.348.028.527l.044.955H39.145V116.612c0-14.063,0-28.606,0-42.909a17,17,0,0,1,.1-2.149,3.285,3.285,0,0,1,3.083-2.948,6.45,6.45,0,0,1,2.732.715c2.928,1.436,5.96,2.949,8.635,4.285,3.275,1.636,7.348,3.673,11.255,5.562a6.387,6.387,0,0,0,2.729.59,5.867,5.867,0,0,0,1.238-.126,3.8,3.8,0,0,0,2.891-3.614,3.465,3.465,0,0,0-.727-2.472,5.263,5.263,0,0,0-1.855-1.41c-2.324-1.153-4.688-2.31-6.974-3.429l-.2-.1-.041-.02c-5.773-2.825-11.743-5.747-17.5-8.816a31.581,31.581,0,0,0-15.233-3.708C28.646,56.066,27.981,56.082,27.306,56.115ZM87.34,44.162A2.96,2.96,0,0,1,90.06,46.6a6.127,6.127,0,0,1-.545,3.325c-2.43,5.036-4.981,10.123-7.447,15.043l-.05.1c-.838,1.67-1.786,3.562-2.706,5.4-.15.3-.288.6-.434.925l-.013.03-.067.146-.166.365-.62,1.342,1.476.076.469.027.032,0c.277.017.516.032.766.032H96.119l16.655,0c11.34,0,20.495,0,27.2-.006a6.711,6.711,0,0,0,5-1.832,6.979,6.979,0,0,0,1.782-5.072c.007-18.666,0-36.877,0-52.229a7.114,7.114,0,0,0-1.819-5.325,7.268,7.268,0,0,0-5.368-1.793q-15.017,0-30.033,0l-36.5,0c-2.431,0-4.2.591-5.4,1.809s-1.778,3-1.779,5.45c0,5.722,0,11.545,0,17.176V44.113q0,.872,0,1.746V47.6c0,4.241,0,8.626.018,12.957a2.636,2.636,0,0,0,.919,2.329c1.4.787,2.782,1.468,4.252,2.189l.193.094c.421.206.857.42,1.286.634l.894.446.447-.894,1.365-2.731L75.3,62.5l.7-1.409.027-.056c1.67-3.341,3.248-6.5,4.863-9.717.256-.511.512-1.033.739-1.494.653-1.331,1.327-2.7,2.07-4.01A3.1,3.1,0,0,1,86.594,44.1,4.877,4.877,0,0,1,87.34,44.162ZM18.806,25.426a13.161,13.161,0,0,0-2.979,4.1,14.255,14.255,0,0,0-1.3,5.333,13.444,13.444,0,0,0,3.476,9.658,13.183,13.183,0,0,0,4.141,3.061,14.069,14.069,0,0,0,5.428,1.314c.181.007.373.012.57.012A13.431,13.431,0,0,0,41.494,36.092a12.727,12.727,0,0,0-3.169-9.483,13.62,13.62,0,0,0-4.3-3.289A14.172,14.172,0,0,0,28.483,21.9c-.214-.012-.438-.017-.667-.017A13.193,13.193,0,0,0,18.806,25.426ZM106.716,61.5c-2.413-.01-4.052-1.3-4.384-3.448A3.905,3.905,0,0,1,105,53.612a6.824,6.824,0,0,1,1.945-.224c1.624-.01,3.338-.014,5.559-.014l3,0h2.957l3.621,0,1.194,0h2.389c1.563,0,3,0,4.536.009a4.974,4.974,0,0,1,3.581,1.319,3.759,3.759,0,0,1,1.055,2.75c-.029,2.377-1.905,4.044-4.565,4.053-3.932.014-7.834.021-11.595.021C114.593,61.524,110.569,61.516,106.716,61.5Zm-1.057-17.28a3.585,3.585,0,0,1-3.328-3.3,3.939,3.939,0,0,1,.813-3.195,4.584,4.584,0,0,1,3.517-1.486c1.375-.023,2.855-.034,4.657-.034,1.265,0,2.526,0,3.592.01s2.358.009,3.6.009c1.267,0,2.6-.007,3.673-.013l.367,0c1.049-.005,2.134-.01,3.2-.01,1.836,0,3.347.014,4.757.045a4.485,4.485,0,0,1,3.65,1.767,4.076,4.076,0,0,1-2.622,6.232l-.007,0-.048.009c-2.169,0-4.347,0-6.765.01-2.216,0-4.967.011-7.575.011C112.65,44.276,109.005,44.258,105.659,44.222ZM81.994,27.184a4.236,4.236,0,0,1-3.566-1.805,3.9,3.9,0,0,1-.363-3.665,3.72,3.72,0,0,1,2.7-2.424,8.735,8.735,0,0,1,1.992-.215c9.053-.007,17.878-.01,28.612-.01l15.941,0h2.661a8.568,8.568,0,0,1,1.109.048,4.106,4.106,0,0,1,3.751,4.243,4.007,4.007,0,0,1-4.145,3.827c-2.975.015-6.094.022-10.111.022l-3.517,0h-1.762l-4.439,0h-4.016l-.5,0c-2.435,0-4.993,0-7.049.005H97.614c-1.778,0-3.587,0-5.371,0C88.213,27.207,84.956,27.2,81.994,27.184Z" transform="translate(-9251 6576.349)" fill="#623f99"/>
    </g>
  </g>
</svg>
