<svg xmlns="http://www.w3.org/2000/svg" width="200" height="200" viewBox="0 0 200 200">
  <g id="Tools-Equipment" transform="translate(8888 -6544)">
    <rect id="Rectangle_566" data-name="Rectangle 566" width="200" height="200" transform="translate(-8888 6544)" fill="#fff" opacity="0"/>
    <g id="Group_765" data-name="Group 765" transform="translate(-7)">
      <circle id="Ellipse_166" data-name="Ellipse 166" cx="22.5" cy="22.5" r="22.5" transform="translate(-8753 6575.349)" fill="#ffd530"/>
      <path id="Path_1139" data-name="Path 1139" d="M114.956,133.1a9,9,0,0,1-1.84-3.328c-1.835-5.791-6.355-9.319-12.341-9.473a13.125,13.125,0,0,0-12.91,8.952c-1.616,4.573-4.9,6.964-9.012,6.562-4.639-.454-8.386-3.7-8.68-8.383a118.64,118.64,0,0,1,.116-16.148c.322-4.352,4.513-7.668,8.9-7.762,1.7-.037,3.394-.006,5.183-.006V77.477c-1.8,0-3.541.008-5.281,0-4.764-.025-8.238-2.947-8.689-7.694a38.9,38.9,0,0,1,.139-8.129,7.928,7.928,0,0,1,7.7-6.826c2.014-.062,4.033-.011,6.134-.011V29.334H77.624c-1.06,0-2.12,0-3.181,0a2.809,2.809,0,0,1-2.921-1.671A3.015,3.015,0,0,1,72.6,24.2c2.827-2.578,5.674-5.133,8.513-7.7Q89.421,9,97.731,1.488c2.2-1.989,3.378-1.982,5.58.01q12.408,11.223,24.835,22.428c1.058.953,1.81,2.02,1.441,3.494-.274,1.1-1.88,1.91-3.541,1.913-3.085.006-6.17,0-9.38,0v25.45c1.524,0,3.03.068,4.529-.013,5.36-.289,9.433,3.538,9.261,9.3-.062,2.071.049,4.162-.205,6.207a8.159,8.159,0,0,1-8.141,7.194c-1.793.036-3.587.005-5.474.005v26.033c1.373,0,2.7-.007,4.02,0,5.013.033,9.3,3.48,9.616,8.458a114.842,114.842,0,0,1-.125,16.148c-.293,3.737-2.905,6.184-6.5,7.3a9.237,9.237,0,0,1-2.752.442A7.93,7.93,0,0,1,114.956,133.1ZM100.4,114.287c8.531,0,15.425,5.237,17.968,13.64a2.747,2.747,0,0,0,3.867,1.951A3.838,3.838,0,0,0,125,126.028c.013-4.055.006-8.111,0-12.165,0-3.268-1.33-4.613-4.6-4.617q-9.885-.012-19.769,0H99.532c-6.452,0-12.9-.013-19.355.009-2.179.007-4.064,1.408-4.107,3.306-.1,4.744-.091,9.493,0,14.237a3.62,3.62,0,0,0,3.392,3.274,2.806,2.806,0,0,0,3.2-2.2c2.533-8.3,9.43-13.581,17.723-13.581Zm-10.162-10.9h20.543V77.6H90.237Zm19.566-31.4c1.372-.005,2.745-.238,4.117-.225,2.615.025,5.231.191,7.848.221a2.621,2.621,0,0,0,2.947-2.874c.042-1.518.012-3.039.011-4.559,0-2.989-.772-3.773-3.746-3.775q-10.291-.008-20.582,0c-7,0-14-.011-21,.005-2.517.005-3.372.9-3.38,3.437q-.005,2.211,0,4.422c.01,2.445.9,3.353,3.3,3.358q5.705.012,11.412,0C97.091,72,103.447,72.019,109.8,71.993ZM90.243,54.7h20.51V29.382H90.243ZM81.622,23.455h37.5L100.373,6.66ZM8.214,135.806a8.1,8.1,0,0,1-8.073-7.742,40.088,40.088,0,0,1,.115-7.858,7.949,7.949,0,0,1,7.81-7.024c1.885-.056,3.774-.01,5.807-.01V37.848H9.311c-1.568,0-3.136-.012-4.7,0-1.417.014-2.692-.272-3.354-1.689-.523-1.121-.031-2.456,1.284-3.645,7.969-7.2,15.974-14.364,23.9-21.612,3.217-2.94,4.116-3.274,7.67,0,7.862,7.25,15.857,14.355,23.777,21.542a5.29,5.29,0,0,1,1.3,1.739,2.317,2.317,0,0,1-1.8,3.442,35.036,35.036,0,0,1-4.819.212c-2.111.03-4.224.007-6.441.007v75.307c1.722,0,3.414-.006,5.1,0,5.485.026,8.951,3.483,8.961,9a48.973,48.973,0,0,1-.229,6.618,8.2,8.2,0,0,1-8.039,7.036q-11.006.041-22.012.043Q19.061,135.856,8.214,135.806Zm43.151-5.723c2.07,0,3.057-.98,3.092-3.024.024-1.428.006-2.857.005-4.284,0-3.235-.716-3.941-4.007-3.942q-15.821,0-31.642,0c-3.315,0-6.63-.031-9.944.014-2.164.03-3.084,1.013-3.108,3.173-.017,1.52-.007,3.04,0,4.561.007,2.616.876,3.5,3.454,3.5q10.436.005,20.869,0Q40.724,130.087,51.366,130.083ZM19.7,113.076H40.223V98.85H19.7Zm.006-20.144H40.244V78.386H19.71Zm.008-20.449H40.2V58.255H19.718ZM19.69,52.39H40.22V37.952H19.69ZM11.261,32.048H48.98L30.119,15.16Z" transform="translate(-8854 6575.349)" fill="#623f99" stroke="rgba(0,0,0,0)" stroke-width="1"/>
    </g>
  </g>
</svg>
